<?xml version="1.0" encoding="utf-8"?>
<svg viewBox="-0.6225 157.0564 1604.7175 1588.7013" width="1604.7175" height="1588.7013" xmlns="http://www.w3.org/2000/svg">
  <defs>
    <style type="text/css">
	.st0{fill:#663300;}
	.st1{fill:#A85D2A;}
	.st2{fill:none;stroke:#663300;stroke-width:7;stroke-linecap:round;stroke-miterlimit:10;}
	.st3{fill:none;stroke:#512500;stroke-width:7;stroke-linecap:round;stroke-miterlimit:10;}
</style>
  </defs>
  <g transform="matrix(0.413338959217, 0.496884018183, -0.482630074024, 0.401482969522, -27.437964386751, -0.94196174337)" style="transform-origin: 829.174px 952.349px;">
    <g>
      <path class="st0" d="M1648.1,3.4c0.9,0.6,1.8,1.2,2.6,2c10.2,9.1,10.2,26.8-0.1,39.4l-1024,1257.6c-10.3,12.6-26.9,15.5-37.1,6.4 c-10.2-9.1-10.2-26.8,0.1-39.4l1024-1257.6C1623,0.1,1637.9-3.3,1648.1,3.4z"/>
    </g>
    <path class="st0" d="M290.1,1443.3c39.5-59.1,265.3-156.4,281.5-163.4c4.2-10.3,23.7-57.6,34.9-82.9c12.6-28.5,44.1-81,39.6-68 c-5.1,15.1-40.3,79.4-22.3,59.8c5.3-5.8,13.5-12.4,21.6-18.2c16-11.4,31.8-19.4,25.2-10.7c-10.5,13.8-20.8,51-28.5,63.1 c-11.9,18.7,62.5-32.6,53.7-18.8c-7,11.1-7.8,23.4-8.4,33.3c-0.1,2.2-0.3,4.3-0.5,6.2c-1.3,11.5,55-25.2,42.7-11.3 c-12.2,13.7-82.3,70.2-119.5,83.3c-1.8,11.2-11.3,69.5-30.4,127.7c-21.2,64.8-96.6,167.8-96.6,167.8l20.7-75.9 c0,0-18.2,44.5-54.4,111.8c-33.2,61.6-135.7,128.8-218.7,182.6c-4.5,2.9-33.7,14.6-57,23.7c-16.3,6.4-29.6,11.5-29.6,11.5l1.2-2 l28.9-47.9c0,0-104.6,58.8-151.7,79.5c0,0,0,0,0,0c-9,4-15.9,6.5-19.6,7c-2.8,0.4-3.7-0.5-2.1-2.9c0.6-0.9,1.5-2,2.8-3.4 c97.3-101.2,158.4-215.8,158.4-215.8s-67.6,70.4-62.1,54.6c27.6-78.7,138.3-183.8,138.3-183.8s-46.6,10.6-41.1,1.8 c34.3-55.4,134.6-106.3,136.2-107.1C332.1,1444.9,284.1,1452.3,290.1,1443.3z"/>
    <path class="st1" d="M290.1,1443.3c39.5-59.1,265.3-156.4,281.5-163.4c4.2-10.3,23.7-57.6,34.9-82.9c12.6-28.5,44.1-81,39.6-68 c-5.1,15.1-40.3,79.4-22.3,59.8c5.3-5.8,13.5-12.4,21.6-18.2c-0.6,0.8-1.3,1.5-2,2c-16.1,11.1-62.7,113.2-71.7,123 c-8.9,9.7-183.5,113.8-212.3,140.8c-28.8,27.1,26.4,4.9,26.4,4.9s-77,62.5-100.2,93.9c-22.8,30.9-68.8,78.6-70.2,80.1 c1.7-1.1,42.7-27.5,24.9-7.9c-18.1,20-37,99.8-65.2,148.2c-24.7,42.3-106.5,109.2-152.5,138.9c0,0,0,0,0,0 c-6.6,4.2-12.4,7.7-17.2,10.2l-2.3-3.3l-2.1-2.9c0.6-0.9,1.5-2,2.8-3.4c97.3-101.2,158.4-215.8,158.4-215.8s-67.6,70.4-62.1,54.6 c27.6-78.7,138.3-183.8,138.3-183.8s-46.6,10.6-41.1,1.8c34.3-55.4,134.6-106.3,136.2-107.1 C332.1,1444.9,284.1,1452.3,290.1,1443.3z"/>
    <path class="st1" d="M230.7,1829.7c-4.5,2.9-33.7,14.6-57,23.7c75.4-54.7,176.1-128.9,212.9-188.3c36.8-59.4,26.8-11.8,26.8-11.8 s87.2-166.5,91.9-157.8c4.8,8.7-1.5,42.1,28.4-10.8c30-52.9,64.3-144.7,67.9-159.5c0.8-3.2,3.1-7.1,6.4-11.6 c12.2-16.5,38.5-39.6,56.2-52.9c10.1-7.6,17.7-16.1,23.1-23.1c-0.1,2.2-0.3,4.3-0.5,6.2c-1.3,11.5,55-25.2,42.7-11.3 c-12.2,13.7-82.3,70.2-119.5,83.3c-1.8,11.2-11.3,69.5-30.4,127.7c-21.2,64.8-96.6,167.8-96.6,167.8l20.7-75.9 c0,0-18.2,44.5-54.4,111.8C416.2,1708.7,313.7,1775.9,230.7,1829.7z"/>
    <path class="st2" d="M614.9,1319c-11.5-13.4-22.1-27.9-37.5-36.7"/>
    <path class="st3" d="M631.3,1309.2c-13.4-11.3-26.1-23.8-42.8-30"/>
    <path class="st2" d="M618.9,1307.7c-8.4-15.9-15.8-32.8-28.8-45"/>
  </g>
  <g transform="matrix(1.0174230337142944, 0, 0, 1.394489049911499, -10.780196189880371, -385.58184814453125)" style="">
    <ellipse style="stroke: rgb(0, 0, 0); fill: rgb(255, 238, 193); stroke-opacity: 0;" cx="1240.182" cy="971.111" rx="117.849" ry="87.904"/>
    <rect x="1087.302" y="946.233" width="43.281" height="51.582" style="stroke: rgb(0, 0, 0); stroke-opacity: 0; fill: rgb(255, 238, 193);"/>
  </g>
  <g id="_x31_600px_xD7_1200px" class="st0" style="display: none; fill: rgb(0, 0, 0);" transform="matrix(0.9999999999999999, 0, 0, 0.9999999999999999, 1085.1861572265623, 859.2635498046875)"/>
  <g id="ñÇñ_x40_égÇ_xA2_ÇÃèóÇÃéq" transform="matrix(1.0936039686203003, 0, 0, 1.2061469554901123, 944.6374511718748, 819.1904907226562)" style="">
    <g style="transform-origin: 185.171px 139.822px;" transform="matrix(0.194772, 1.112015, -1.112015, 0.194772, 190.509262, -44.725147)">
      <g>
        <g>
          <g>
            <path class="st1" d="M366.7,256.7c4.4-24.8-72-49.2-97.2-59.4c-45.6-18.6-101.5-18.6-151.7-21.4c-51.7-2.9-98.4,2.3-110.1,16.8 c-16,19.9,15.2,38.7,61.2,53.3c25.3,8,68.2,19.1,106.6,23.7c36.7,4.4,74.2,6.2,92.7,6.4C322.2,276.7,364.3,271.1,366.7,256.7z" style="fill: rgb(73, 72, 98); stroke: rgb(0, 0, 0); stroke-linecap: round; stroke-linejoin: round; stroke-width: 7.0765px;"/>
            <path class="st2" d="M268.8,224.8c-16.2,11.5-61.6,6.5-80.7,5.6c-17.7-0.9-59.8-9.1-72.9-24.4c-12.4-14.4,43.1-96.1,54.7-117.7 C186.2,58,234.9,20,263.1,3.5c2.1,11.2-6.8,29.9-3.5,51.1c3,19.3-1.3,31.8-16.5,43.1C267.3,115.6,280.3,216.6,268.8,224.8z" style="fill: rgb(73, 72, 98); stroke: none; stroke-linecap: butt; stroke-miterlimit: 4; stroke-width: 1px;"/>
            <polygon class="st3" points="231.1,169.1 245.1,149.5 243.3,173 266.6,179.1 242.9,185.4 243.4,208.7 230.5,189.2 207.5,197.6 &#10;&#9;&#9;&#9;&#9;&#9;&#9;223.2,179.3 208.5,161.1 &#9;&#9;&#9;&#9;&#9;" style="fill: rgb(254, 207, 56); stroke: none; stroke-linecap: butt; stroke-miterlimit: 4; stroke-width: 1px;"/>
            <polygon class="st3" points="221,50.6 232.1,41.1 226.5,56.2 237.2,66.3 223.8,64.5 219.3,80.3 216.6,64 203.2,63.7 &#10;&#9;&#9;&#9;&#9;&#9;&#9;214.9,55.3 211.1,39.5 &#9;&#9;&#9;&#9;&#9;" style="fill: rgb(254, 207, 56); stroke: none; stroke-linecap: butt; stroke-miterlimit: 4; stroke-width: 1px;"/>
            <path class="st4" d="M242.7,98.2c-8.5,3.3-18.5,5.7-29,4.6" style="fill: rgb(83, 75, 108); stroke: rgb(0, 0, 0); stroke-linecap: round; stroke-linejoin: round; stroke-width: 7.0765px;"/>
            <path class="st3" d="M181.3,99.6c-18.3,9.8-11,46,8.5,50.3C152.9,157,144.6,104,181.3,99.6z" style="fill: rgb(254, 207, 56); stroke: none; stroke-linecap: butt; stroke-miterlimit: 4; stroke-width: 1px;"/>
            <path class="st5" d="M265.3,212.3c-13.1,20.3-56.5,20.3-75.5,17.4c-22.7-3.6-63.4-0.6-76.9-29.8 c-1.4-22.8,45.2-90.1,56.8-111.6C186.2,58,234.9,20,263.1,3.5c2.1,11.2-6.8,29.9-3.5,51.1c3,19.3-1.3,31.8-16.5,43.1 C267.3,115.6,270.9,192.9,265.3,212.3z" style="fill: none; stroke: rgb(0, 0, 0); stroke-linecap: round; stroke-linejoin: round; stroke-width: 7.0765px;"/>
            <path class="st6" d="M116.7,178.2c-5.2,12.5-4.3,12.2-7,21c6.2,30.8,42.1,41.4,63.6,44.3c48.1,5.8,106.4-10,99-38.5 c-0.3-3.8-1.9-8.1-4.8-15.8c-6.2,34.4-66.7,33.7-91.9,31.1C157.6,218.3,129.3,207.6,116.7,178.2z" style="fill: rgb(198, 43, 39); stroke: rgb(0, 0, 0); stroke-linecap: round; stroke-linejoin: round; stroke-width: 7.0765px;"/>
          </g>
        </g>
      </g>
    </g>
  </g>
  <g transform="matrix(-0.002431000117, 0.999996960163, -0.999996960163, -0.002431000117, 686.940608470599, 714.69619138295)" style="transform-origin: 229.363px 252.876px;">
    <path class="st0" d="M248.8,462V115.1c-5,4.8-11.8,7.8-19.4,7.8c-7.5,0-14.3-3-19.4-7.8V462c0,24.1-19.5,43.7-43.6,43.8v0h126.2 C268.4,505.8,248.8,486.2,248.8,462" style="fill: rgb(187, 90, 66);"/>
    <path class="st1" d="M210,462V115.1c-2.7-2.6-4.9-5.6-6.4-9.1h-103L0.5,464.1c-3.7,21.8,13.1,41.7,35.2,41.7h130.5 c0.1,0,0.1,0,0.2,0C190.5,505.7,210,486.2,210,462 M80.2,483.8c-0.8,0-1.6-0.1-2.4-0.2c-6.5-1.3-10.6-7.6-9.3-14.1l64.3-313.5 c1.3-6.5,7.6-10.6,14.1-9.3c6.5,1.3,10.6,7.6,9.3,14.1L91.9,474.2C90.7,479.9,85.7,483.8,80.2,483.8 M167.6,473.4 c-0.8,6-5.9,10.4-11.8,10.4c-0.5,0-1.1,0-1.6-0.1c-6.5-0.9-11.1-6.9-10.2-13.4l19-141.6c0.9-6.5,6.9-11.1,13.4-10.2 c6.5,0.9,11.1,6.9,10.2,13.4L167.6,473.4z" style="fill: rgb(231, 106, 82);"/>
    <path class="st1" d="M458.2,464.1L358.1,106h-103c-1.5,3.5-3.7,6.5-6.4,9.1V462c0,24.2,19.6,43.8,43.8,43.8h3.8H423 C445.2,505.8,462,485.9,458.2,464.1 M304.6,483.7c-0.5,0.1-1.1,0.1-1.6,0.1c-5.9,0-11-4.4-11.8-10.4l-19-141.6 c-0.9-6.5,3.7-12.5,10.2-13.4c6.5-0.9,12.5,3.7,13.4,10.2l19,141.6C315.7,476.8,311.1,482.8,304.6,483.7 M381,483.5 c-0.8,0.2-1.6,0.2-2.4,0.2c-5.6,0-10.5-3.9-11.7-9.5l-64.3-313.5c-1.3-6.5,2.8-12.8,9.3-14.1c6.5-1.3,12.8,2.8,14.1,9.3l64.3,313.5 C391.6,475.9,387.4,482.2,381,483.5" style="fill: rgb(231, 106, 82);"/>
    <path class="st0" d="M212.7,72.5l-70.2-70c-4.3-4.3-11.2-3-14.7,2.7l-22.2,36.7l97.3,44.3C204.7,80.7,208.1,75.9,212.7,72.5" style="fill: rgb(187, 90, 66);"/>
    <path class="st2" d="M203.6,106c-1.5-3.4-2.3-7.2-2.3-11.1c0-3.1,0.6-5.9,1.5-8.7l-97.3-44.3l-7.8-3.6c-6.1-2.8-13.3,0.5-15.1,7 L68.8,94.8c-1.6,5.6,2.7,11.2,8.5,11.2h23.3H203.6z" style="fill: rgb(244, 168, 134); stroke: none; stroke-linecap: butt; stroke-miterlimit: 4; stroke-width: 1px;"/>
    <path class="st0" d="M255.9,86.2l97.3-44.3L330.9,5.2c-3.4-5.7-10.4-7-14.7-2.7l-70.2,70C250.7,75.9,254.1,80.7,255.9,86.2" style="fill: rgb(187, 90, 66);"/>
    <path class="st2" d="M257.4,94.9c0,4-0.8,7.7-2.3,11.1h103h23.3c5.9,0,10.1-5.6,8.5-11.2l-13.9-49.4c-1.8-6.5-9-9.8-15.1-7 l-7.8,3.6l-97.3,44.3C256.8,89,257.4,91.9,257.4,94.9" style="fill: rgb(244, 168, 134); stroke: none; stroke-linecap: butt; stroke-miterlimit: 4; stroke-width: 1px;"/>
    <path class="st3" d="M202.8,86.2c-0.9,2.8-1.5,5.6-1.5,8.7c0,4,0.8,7.7,2.3,11.1c1.5,3.5,3.7,6.5,6.4,9.1c5,4.8,11.8,7.8,19.4,7.8 c7.5,0,14.3-3,19.4-7.8c2.7-2.6,4.9-5.6,6.4-9.1c1.5-3.4,2.3-7.2,2.3-11.1c0-3.1-0.6-5.9-1.5-8.7c-1.8-5.5-5.3-10.3-9.8-13.7 c-4.7-3.5-10.4-5.6-16.7-5.6s-12,2.1-16.7,5.6C208.1,75.9,204.7,80.7,202.8,86.2" style="fill: rgb(255, 209, 108); stroke: none; stroke-linecap: butt; stroke-miterlimit: 4; stroke-width: 1px;"/>
    <path class="st4" d="M326,155.9c-1.3-6.5-7.6-10.6-14.1-9.3c-6.5,1.3-10.6,7.6-9.3,14.1l64.3,313.5c1.2,5.6,6.1,9.5,11.7,9.5 c0.8,0,1.6-0.1,2.4-0.2c6.5-1.3,10.6-7.6,9.3-14.1L326,155.9z" style="fill: rgb(197, 86, 64);"/>
    <path class="st4" d="M146.9,146.6c-6.5-1.3-12.8,2.8-14.1,9.3L68.5,469.4c-1.3,6.5,2.8,12.8,9.3,14.1c0.8,0.2,1.6,0.2,2.4,0.2 c5.6,0,10.5-3.9,11.7-9.5l64.3-313.5C157.5,154.3,153.3,147.9,146.9,146.6" style="fill: rgb(197, 86, 64);"/>
    <path class="st5" d="M176.4,318.4c-6.5-0.9-12.5,3.7-13.4,10.2l-19,141.6c-0.9,6.5,3.7,12.5,10.2,13.4c0.5,0.1,1.1,0.1,1.6,0.1 c5.9,0,11-4.4,11.8-10.3l19-141.6C187.5,325.3,182.9,319.3,176.4,318.4" style="fill: rgb(188, 92, 66);"/>
    <path class="st5" d="M295.8,328.6c-0.9-6.5-6.9-11.1-13.4-10.2c-6.5,0.9-11.1,6.9-10.2,13.4l19,141.6c0.8,6,5.9,10.3,11.8,10.3 c0.5,0,1.1,0,1.6-0.1c6.5-0.9,11.1-6.9,10.2-13.4L295.8,328.6z" style="fill: rgb(188, 92, 66);"/>
  </g>
</svg>