<svg version="1.1" id="Layer_1" x="0px" y="0px" viewBox="3.534 605.714 1641.631 708.596" style="enable-background:new 0 0 1658.4 1904.7;" xmlns="http://www.w3.org/2000/svg" xmlns:bx="https://boxy-svg.com">
  <defs></defs>
  <style type="text/css">
	.st0{fill:#663300;}
	.st1{fill:#A85D2A;}
	.st2{fill:none;stroke:#663300;stroke-width:7;stroke-linecap:round;stroke-miterlimit:10;}
	.st3{fill:none;stroke:#512500;stroke-width:7;stroke-linecap:round;stroke-miterlimit:10;}
</style>
  <g transform="matrix(0.413339, 0.496884, -0.48263, 0.401483, -7.939624, -2.10245)" style="transform-origin: 829.174px 952.349px;">
    <g>
      <path class="st0" d="M1648.1,3.4c0.9,0.6,1.8,1.2,2.6,2c10.2,9.1,10.2,26.8-0.1,39.4l-1024,1257.6c-10.3,12.6-26.9,15.5-37.1,6.4
			c-10.2-9.1-10.2-26.8,0.1-39.4l1024-1257.6C1623,0.1,1637.9-3.3,1648.1,3.4z"></path>
    </g>
    <path class="st0" d="M290.1,1443.3c39.5-59.1,265.3-156.4,281.5-163.4c4.2-10.3,23.7-57.6,34.9-82.9c12.6-28.5,44.1-81,39.6-68
		c-5.1,15.1-40.3,79.4-22.3,59.8c5.3-5.8,13.5-12.4,21.6-18.2c16-11.4,31.8-19.4,25.2-10.7c-10.5,13.8-20.8,51-28.5,63.1
		c-11.9,18.7,62.5-32.6,53.7-18.8c-7,11.1-7.8,23.4-8.4,33.3c-0.1,2.2-0.3,4.3-0.5,6.2c-1.3,11.5,55-25.2,42.7-11.3
		c-12.2,13.7-82.3,70.2-119.5,83.3c-1.8,11.2-11.3,69.5-30.4,127.7c-21.2,64.8-96.6,167.8-96.6,167.8l20.7-75.9
		c0,0-18.2,44.5-54.4,111.8c-33.2,61.6-135.7,128.8-218.7,182.6c-4.5,2.9-33.7,14.6-57,23.7c-16.3,6.4-29.6,11.5-29.6,11.5l1.2-2
		l28.9-47.9c0,0-104.6,58.8-151.7,79.5c0,0,0,0,0,0c-9,4-15.9,6.5-19.6,7c-2.8,0.4-3.7-0.5-2.1-2.9c0.6-0.9,1.5-2,2.8-3.4
		c97.3-101.2,158.4-215.8,158.4-215.8s-67.6,70.4-62.1,54.6c27.6-78.7,138.3-183.8,138.3-183.8s-46.6,10.6-41.1,1.8
		c34.3-55.4,134.6-106.3,136.2-107.1C332.1,1444.9,284.1,1452.3,290.1,1443.3z"></path>
    <path class="st1" d="M290.1,1443.3c39.5-59.1,265.3-156.4,281.5-163.4c4.2-10.3,23.7-57.6,34.9-82.9c12.6-28.5,44.1-81,39.6-68
		c-5.1,15.1-40.3,79.4-22.3,59.8c5.3-5.8,13.5-12.4,21.6-18.2c-0.6,0.8-1.3,1.5-2,2c-16.1,11.1-62.7,113.2-71.7,123
		c-8.9,9.7-183.5,113.8-212.3,140.8c-28.8,27.1,26.4,4.9,26.4,4.9s-77,62.5-100.2,93.9c-22.8,30.9-68.8,78.6-70.2,80.1
		c1.7-1.1,42.7-27.5,24.9-7.9c-18.1,20-37,99.8-65.2,148.2c-24.7,42.3-106.5,109.2-152.5,138.9c0,0,0,0,0,0
		c-6.6,4.2-12.4,7.7-17.2,10.2l-2.3-3.3l-2.1-2.9c0.6-0.9,1.5-2,2.8-3.4c97.3-101.2,158.4-215.8,158.4-215.8s-67.6,70.4-62.1,54.6
		c27.6-78.7,138.3-183.8,138.3-183.8s-46.6,10.6-41.1,1.8c34.3-55.4,134.6-106.3,136.2-107.1
		C332.1,1444.9,284.1,1452.3,290.1,1443.3z"></path>
    <path class="st1" d="M230.7,1829.7c-4.5,2.9-33.7,14.6-57,23.7c75.4-54.7,176.1-128.9,212.9-188.3c36.8-59.4,26.8-11.8,26.8-11.8
		s87.2-166.5,91.9-157.8c4.8,8.7-1.5,42.1,28.4-10.8c30-52.9,64.3-144.7,67.9-159.5c0.8-3.2,3.1-7.1,6.4-11.6
		c12.2-16.5,38.5-39.6,56.2-52.9c10.1-7.6,17.7-16.1,23.1-23.1c-0.1,2.2-0.3,4.3-0.5,6.2c-1.3,11.5,55-25.2,42.7-11.3
		c-12.2,13.7-82.3,70.2-119.5,83.3c-1.8,11.2-11.3,69.5-30.4,127.7c-21.2,64.8-96.6,167.8-96.6,167.8l20.7-75.9
		c0,0-18.2,44.5-54.4,111.8C416.2,1708.7,313.7,1775.9,230.7,1829.7z"></path>
    <path class="st2" d="M614.9,1319c-11.5-13.4-22.1-27.9-37.5-36.7"></path>
    <path class="st3" d="M631.3,1309.2c-13.4-11.3-26.1-23.8-42.8-30"></path>
    <path class="st2" d="M618.9,1307.7c-8.4-15.9-15.8-32.8-28.8-45"></path>
  </g>
  <g transform="matrix(1.225022, 0, 0, 1.225022, -135.242844, -224.774414)" style="">
    <ellipse style="stroke: rgb(0, 0, 0); fill: rgb(255, 238, 193); stroke-opacity: 0;" cx="1240.182" cy="971.111" rx="117.849" ry="87.904"></ellipse>
    <rect x="1087.302" y="946.233" width="43.281" height="51.582" style="stroke: rgb(0, 0, 0); stroke-opacity: 0; fill: rgb(255, 238, 193);"></rect>
  </g>
  <path style="stroke: rgb(0, 0, 0); fill: rgb(118, 4, 4); stroke-opacity: 0;" d="M 1201.903 937.994 C 1201.903 937.994 732.4539648048085 604.6858213592194 641.568 661.921 C 553.3193025755755 717.4953669856044 557.1354471062834 1193.5465305565292 648.046 1250.813 C 740.6673534652858 1309.1571387077881 1202.279 992.907 1202.279 992.907" bx:d="M 1201.903 937.994 R 641.568 661.921 R 648.046 1250.813 R 1202.279 992.907 1@4ebb079e"></path>
  <path stroke-width="0" d="M 1357.262 849.272 C 1362.594 848.475 1381.82 851.651 1389.157 851.265 C 1393.797 851.021 1396.025 849.213 1399.124 849.272 C 1401.971 849.326 1404.44 851.265 1407.098 851.265 C 1409.756 851.265 1410.335 848.498 1415.072 849.272 C 1426.94 851.209 1479.721 874.923 1489.827 882.164 C 1493.929 885.103 1492.038 886.468 1494.81 889.141 C 1499.112 893.289 1509.555 896.312 1515.741 904.092 C 1523.693 914.091 1532.479 933.476 1535.676 947.948 C 1538.64 961.364 1539.033 973.859 1535.676 987.817 C 1531.814 1003.876 1516.085 1032.022 1510.758 1038.65 C 1508.614 1041.316 1507.325 1040.185 1505.774 1041.64 C 1503.962 1043.34 1503.427 1046.18 1500.791 1048.617 C 1497.077 1052.05 1487.001 1056.499 1483.846 1059.581 C 1481.929 1061.454 1483.454 1062.778 1480.856 1064.565 C 1475.01 1068.583 1456.508 1075.44 1438.993 1078.519 C 1415.93 1082.574 1375.047 1085.241 1351.282 1082.506 C 1332.627 1080.359 1316.43 1069.752 1305.432 1068.552 C 1298.328 1067.776 1293.895 1072.489 1289.485 1070.545 C 1284.815 1068.486 1281.177 1064.713 1278.521 1055.594 C 1273.232 1037.437 1274.081 971.445 1274.534 951.935 C 1274.758 942.241 1276.298 942.091 1276.527 933.994 C 1276.876 921.642 1273.739 891.079 1274.534 882.164 C 1274.896 878.104 1273.415 877.671 1276.527 875.187 C 1284.411 868.894 1336.994 856.542 1347.295 853.259 C 1351.139 852.033 1351.531 851.983 1353.275 851.265 C 1354.793 850.641 1354.837 849.634 1357.262 849.272 Z" style="stroke-width: 2px; stroke: rgb(0, 0, 0); stroke-opacity: 0;"></path>
</svg>