<?xml version="1.0" encoding="utf-8"?>
<svg viewBox="-0.6227 157.0566 1696.6049 1588.7012" width="1696.6049" height="1588.7012" xmlns="http://www.w3.org/2000/svg">
  <defs>
    <style type="text/css">
	.broom_stick{fill:#663300;}
	.broom_brush_light{fill:#A85D2A;}
	.player_skin_tone{fill:#ffe08a;}
  .player_color_dark{fill:#740001;}
  .player_color_middle{fill:#AE0001;}
  .player_color_highlight1{fill:#EEBA30;}
  .player_color_highlight2{fill:#D3A625;}
  .player_color_background{fill:#000000;}
  .player_color_stroke{stroke:#000000;}
  .player_color_no_fill{fill:none;}
</style>
  </defs>
  <g id="g-1" transform="matrix(0.265888959169, 1.613600969315, 1.712230801582, -0.282139986753, 978.837339999048, 844.907714562649)" style="transform-origin: 90.384px 24.546px;">
    <path id="path-1" class="player_color_dark" d="M13.5,54.5c0.6,0.9,1.5,2.1,3,3.1c3,2.1,4.8,1.1,6.9,2.6c3.3,2.4,1,7,4,9.4 c2.6,2.1,5.7-0.7,9.7,0.5c4.4,1.4,5.2,6.3,8.4,12.1c1.4,2.6,10.5,18.6,22.2,19.4c3.8,0.3,7-1.1,11.6,1c2.8,1.3,3.6,2.8,6,2.9 c4.1,0.2,5.8-3.8,8.5-3c2.5,0.8,2.2,4.5,5.5,5.7c1.2,0.4,2.4,0.3,3.2,0.1c2.2-6.4,5.2-18,2-31.1c-7.1-29-40.5-50-62-43.6 c-6.2,1.9-18.7,8.2-28,19.8C13.9,54,13.7,54.3,13.5,54.5z"/>
    <g id="g-2">
      <path class="player_skin_tone" d="M112.7,37.1c-0.8,1.6-1.5,3.2-2.1,4.9c-0.7,1.7-1.4,3.3-2.1,5c-0.7,1.7-1.3,3.3-1.9,5 c-0.6,1.7-1.3,3.4-1.9,5.1l-3.6,10.2c-1.2,3.4-2.5,6.8-3.6,10.2c-1.2,3.4-2.3,6.8-3.5,10.3c-1.2,3.4-2.3,6.9-3.5,10.3 c-2.4,6.8-5.2,13.5-8.4,19.9l-1.2,2.4l-1.2,2.4c-0.8,1.6-1.7,3.2-2.6,4.8c-1.8,3.2-3.6,6.3-5.6,9.3c-1.9,3.1-4,6.1-6,9.1 c-2.1,3-4.3,5.9-6.4,8.9l-6.6,8.8c-2.2,2.9-4.4,5.8-6.5,8.8c-2.1,2.9-4.2,5.9-6.2,8.9c-1,1.5-2,3-3,4.5c-1,1.5-2,3-2.7,4.7 l-11.3-25.7c3.1,0.7,6.5,0.7,9.7,1c1.6,0.1,3.3,0.3,4.8,0.6l4.7,1l9.5,2c3.2,0.7,6.3,1.3,9.5,2c3.2,0.7,6.3,1.4,9.4,2.1 c3.1,0.8,6.2,1.6,9.3,2.5c3.1,0.9,6.2,1.8,9.2,2.8c3.1,1,6.1,2.1,9.1,3.3c3,1.2,6,2.4,9,3.8c3,1.3,5.9,2.8,8.9,4.2 c3,1.4,5.9,2.8,8.9,4.2c3,1.4,6,2.6,9,3.8c3,1.2,6.1,2.2,9.2,3.1l2.3,0.7c0.8,0.2,1.6,0.4,2.4,0.5c1.6,0.2,3.3,0,5.1-0.5 c1.8-0.5,3.6-1.1,5.4-1.6c1.8-0.5,3.5-0.7,5.2-0.7c1.7,0,3.3,0.2,4.8,0.6c1.6,0.4,3.1,0.9,4.5,1.9c9.5,6.9,11.6,20.1,4.7,29.6 c-3.6,5-9.1,7.9-14.7,8.6c-1.7,0.2-3.3-0.1-4.9-0.5c-1.5-0.4-3-1.1-4.5-1.9c-1.5-0.8-2.8-1.8-4.2-3.1c-1.3-1.3-2.6-2.7-3.9-4 c-1.3-1.3-2.7-2.3-4.2-2.9c-0.7-0.3-1.5-0.5-2.3-0.7l-2.4-0.5c-3.1-0.7-6.3-1.3-9.5-1.7c-3.2-0.4-6.4-0.8-9.7-1.1 c-3.3-0.3-6.5-0.5-9.8-0.7c-3.3-0.2-6.6-0.4-9.8-0.7c-3.3-0.3-6.5-0.6-9.7-1.1c-3.2-0.5-6.4-1-9.6-1.6c-3.2-0.6-6.3-1.3-9.5-2 c-3.1-0.7-6.3-1.5-9.4-2.4c-3.1-0.9-6.2-1.8-9.3-2.7c-3.1-0.9-6.1-1.9-9.2-2.9l-9.2-2.9l-4.6-1.5c-1.5-0.5-3-1.2-4.5-1.9 c-3-1.4-5.9-3-9-3.9l-1.4-0.4C3.2,196.3-2,186.7,0.7,177.6c0.4-1.4,1-2.7,1.7-3.9c0.9-1.5,1.6-3.1,2.3-4.8c0.7-1.6,1.4-3.3,2-4.9 c1.3-3.3,2.5-6.6,3.6-10c2.3-6.7,4.2-13.6,6.2-20.4c1-3.4,2-6.8,3-10.2l1.6-5.1l1.7-5c1.2-3.3,2.4-6.6,3.7-9.9 c0.7-1.6,1.3-3.2,2-4.9l1-2.5l1-2.4c2.8-6.4,6-12.6,9.5-18.7l5.2-9.1c1.8-3,3.5-6.1,5.2-9.2c1.7-3.1,3.3-6.2,4.9-9.3l4.8-9.4 c1.6-3.1,3.1-6.3,4.5-9.5c0.7-1.6,1.4-3.2,2-4.8c0.7-1.6,1.3-3.3,1.9-5C73,6.4,86.8,0,99.2,4.5c12.4,4.5,18.9,18.3,14.3,30.7 C113.3,35.8,113,36.5,112.7,37.1z"/>
    </g>
    <g id="g-3">
      <path class="player_skin_tone" d="M207.4,261.4l-43.2-25.3c-2.1-1.3-2.9-4-1.6-6.2s4-2.9,6.2-1.6c0.1,0,0.1,0.1,0.2,0.1l42.1,27.2 c1.6,1,2.1,3.2,1,4.7C211.1,261.8,209,262.3,207.4,261.4z"/>
    </g>
    <g id="g-4">
      <path class="player_skin_tone" d="M199.9,215.7l-15.9-8.4l2.5,0.6h0c-5,0.4-10,0.7-14.9,1.2c-2.5,0.2-4.9,0.5-7.3,0.9c-1.2,0.2-2.4,0.4-3.5,0.6 c-0.6,0.1-1.1,0.2-1.7,0.3c-0.6,0.1-1,0.3-1.5,0.4l-0.4,0.1c-3,0.7-6-1.1-6.7-4.1c-0.7-3,1.1-6,4.1-6.7c0.1,0,0.2,0,0.3-0.1 c0.7-0.1,1.5-0.3,2.2-0.4c0.7-0.1,1.4-0.2,2.1-0.3c1.4-0.2,2.7-0.3,4-0.4c2.6-0.2,5.2-0.3,7.8-0.4c5.1-0.2,10.2-0.2,15.3-0.2h0 h0.4c0.8,0,1.5,0.2,2.1,0.6l15,9.9c1.7,1.1,2.2,3.4,1,5.1C203.7,216.1,201.6,216.6,199.9,215.7z"/>
    </g>
    <g id="g-5">
      <path class="player_skin_tone" d="M218,240.7l-42.9-21.2c-2.2-1.1-3.1-3.8-2-6c1.1-2.2,3.8-3.1,6-2c0.1,0,0.1,0.1,0.2,0.1l41.8,23.2 c1.6,0.9,2.2,2.9,1.3,4.6C221.5,240.9,219.6,241.5,218,240.7z"/>
    </g>
    <g id="g-6">
      <path class="player_skin_tone" d="M219.4,252.5l-45.1-22.7c-2.2-1.1-3.1-3.8-2-6s3.8-3.1,6-2c0.1,0,0.1,0.1,0.2,0.1l43.9,25 c1.5,0.9,2.1,2.8,1.2,4.4C222.7,252.7,220.9,253.2,219.4,252.5z"/>
    </g>
    <g id="g-7">
      <path class="player_skin_tone" d="M192.5,263.1l-38.1-24.2c-1.6-1-2.1-3.2-1.1-4.8s3.2-2.1,4.8-1.1c0,0,0.1,0.1,0.1,0.1l37.1,25.7 c1.2,0.8,1.5,2.5,0.7,3.7C195.3,263.6,193.7,263.9,192.5,263.1z"/>
    </g>
    <g id="g-8">
      <path class="player_color_middle" d="M115.9,76c-0.6,2.5-1.3,5-2.1,7.3c-3.3,10.5-7.8,19-11.5,25.2c-0.3,0-0.7-0.1-1.2-0.4c-0.8-0.4-1.4-1-1.8-1.7 c-0.9-1.6-1.3-3.8-2.2-6.6l0,0c-0.2-0.5-0.4-1.1-0.6-1.7c-0.9-2.3-2.1-4.2-4-4.9c-1.7-0.6-4-0.1-7.5,2.5c-0.6,0.4-1.2,0.9-1.9,1.5 c-0.4,0.3-0.8,0.7-1.3,1.1c-10,9-12.2,5.2-13.6,0.1c-0.3-1.3-0.6-2.8-1-4.1c-0.6-2.2-1.4-4.1-2.8-4.9c0,0,0,0,0-0.1 c-0.2-0.3-0.4-0.7-0.6-1.2c-0.6-1.8-0.5-4.4-0.3-7.1c0.2-2.1,0.5-4.4,0.6-6.4c0.2-5.4-1.1-9.4-10-6.4c-1.2,0.4-2.5,0.9-3.9,1.6 c-5.3,2.4-8.2,2.7-9.8,1.7c-1.8-1-2.2-3.5-2.5-6.2c-0.1-0.9-0.2-1.8-0.4-2.7c0,0,0,0,0,0c-0.8-4.2-2.7-8.2-11.1-7.8 c-1.1,0.1-2.3,0.2-3.5,0.4c0,0-5.6,1.2-7.7,0.3c-0.7-0.3-1.2-0.7-1.2-0.7c-0.2-0.1-0.4-0.3-0.5-0.4c5.1-7,12.7-16.3,23.6-25.3 c7.5-6.2,47.1-39,69.1-26.2C126.2,14.6,120.3,57.8,115.9,76z"/>
    </g>
    <path id="path-2" class="player_color_highlight1" d="M42.4,57.8c-1.3,2.8-2.8,5.3-4.4,7.6c-0.1-0.9-0.2-1.8-0.4-2.7c0,0,0,0,0,0 c-0.8-4.2-2.7-8.2-11.1-7.8c7.8-14,10.9-17.7,15.3-21.2c11.4-9.2,24.3-11.7,24.9-10.7C67.1,23.8,58,27,51,36.5 C45.1,44.4,46.6,48.7,42.4,57.8z"/>
    <path id="path-3" class="player_color_highlight1" d="M71.4,91.6c-1.4,1.1-2.7,2-4,2.7c-0.6-2.2-1.4-4.1-2.8-4.9c0,0,0,0,0-0.1 c-0.2-0.3-0.4-0.7-0.6-1.2c2.2-2.3,4.6-5.1,6.7-7.7c10.5-13.2,13.2-23,14.3-22.6C86.4,58.4,85.6,80.3,71.4,91.6z"/>
    <path id="path-4" class="player_color_highlight1" d="M54.2,68.3c7.3-11.4,6.9-24.9,21.5-36.9c7.7-6.3,16.3-9.6,17.1-8.5c0.9,1.3-8.6,6.9-15.4,19.3 c-5.3,9.6-3,12.4-8.6,27.2c-1.7,4.5-3.5,8.4-5.2,11.6c0.2-2.1,0.5-4.4,0.6-6.4C64.4,69.2,63.1,65.3,54.2,68.3z"/>
    <path id="path-5" class="player_color_highlight1" d="M105.9,62.6c-1.5,5.3-3.3,8-5,15.8c-2.1,9.7-1.8,17.1-1.7,19.7c0,2.2,0,5.1,0,8.3 c-0.9-1.6-1.3-3.8-2.3-6.5l0,0c-0.2-0.5-0.2-1.1-0.5-1.7c-0.9-2.3-2-4.2-3.9-4.9c-1.7-0.6-4-0.1-7.5,2.5c0.5-2.5,1.2-5.2,2.1-8.2 c4.9-15.9,9.4-16.4,13.1-31.2c4.3-17.4,1.3-29.4,2.5-29.5C104.2,26.7,111,44.7,105.9,62.6z"/>
  </g>
  <g transform="matrix(0.991562128067, 0.527869105339, -0.514539003372, 0.966518104076, -268.960167079742, -400.551351482908)" style="transform-origin: 793.97px 1456.83px;">
    <path class="player_color_dark" d="M 673.159 1392.219 C 676.429 1397.634 680.396 1402.596 684.959 1406.979 C 719.339 1439.839 768.499 1454.359 807.229 1481.539 C 853.929 1514.319 882.909 1557.139 922.009 1596.539 C 959.319 1634.189 980.009 1607.949 964.359 1563.759 C 944.359 1507.189 900.829 1461.759 859.769 1419.589 C 822.439 1381.299 781.129 1321.059 729.039 1303.199 C 666.449 1281.719 646.749 1348.689 673.159 1392.219 Z" style="transform-box: fill-box; transform-origin: 50% 50%;" transform="matrix(-0.298345, 0.954458, -0.954458, -0.298345, -0.000114, -0.000111)"/>
    <path class="player_color_background" d="M 900.117 1553.863 C 861.017 1514.413 832.037 1471.593 785.337 1438.863 C 746.607 1411.683 697.447 1397.163 663.067 1364.303 C 658.504 1359.92 654.537 1354.958 651.267 1349.543 C 644.973 1339.062 641.169 1327.276 640.147 1315.093 C 638.804 1331.667 642.693 1348.245 651.267 1362.493 C 654.537 1367.908 658.504 1372.87 663.067 1377.253 C 697.447 1410.113 746.607 1424.633 785.337 1451.813 C 832.037 1484.593 861.017 1527.413 900.117 1566.813 C 931.257 1598.333 950.857 1585.203 947.327 1554.333 C 944.457 1575.193 926.417 1580.403 900.117 1553.863 Z" style="transform-box: fill-box; transform-origin: 50% 50%;" transform="matrix(-0.298345, 0.954458, -0.954458, -0.298345, -0.000045, -0.000009)"/>
    <path class="player_color_background" d="M 710.383 1565.344 C 710.383 1584.224 684.383 1589.404 645.783 1589.404 C 607.183 1589.404 558.383 1584.224 558.383 1565.344 C 558.383 1546.464 558.383 1514.044 627.383 1514.044 C 671.783 1514.044 710.383 1546.454 710.383 1565.344 Z" style="transform-box: fill-box; transform-origin: 50% 50%;" transform="matrix(-0.298345, 0.954458, -0.954458, -0.298345, 0.000018, 0.000076)"/>
  </g>
  <g transform="matrix(1.014335036278, -0.549227058887, -0.546616971493, -1.009515047073, -277.549478603971, -575.095171682757)" style="transform-origin: 793.97px 1456.83px;">
    <path class="player_color_dark" d="M 673.159 1392.219 C 676.429 1397.634 680.396 1402.596 684.959 1406.979 C 719.339 1439.839 768.499 1454.359 807.229 1481.539 C 853.929 1514.319 882.909 1557.139 922.009 1596.539 C 959.319 1634.189 980.009 1607.949 964.359 1563.759 C 944.359 1507.189 900.829 1461.759 859.769 1419.589 C 822.439 1381.299 781.129 1321.059 729.039 1303.199 C 666.449 1281.719 646.749 1348.689 673.159 1392.219 Z" style="transform-box: fill-box; transform-origin: 50% 50%;" transform="matrix(-0.298345, 0.954458, -0.954458, -0.298345, -0.000114, -0.000111)"/>
    <path class="player_color_background" d="M 900.117 1553.863 C 861.017 1514.413 832.037 1471.593 785.337 1438.863 C 746.607 1411.683 697.447 1397.163 663.067 1364.303 C 658.504 1359.92 654.537 1354.958 651.267 1349.543 C 644.973 1339.062 641.169 1327.276 640.147 1315.093 C 638.804 1331.667 642.693 1348.245 651.267 1362.493 C 654.537 1367.908 658.504 1372.87 663.067 1377.253 C 697.447 1410.113 746.607 1424.633 785.337 1451.813 C 832.037 1484.593 861.017 1527.413 900.117 1566.813 C 931.257 1598.333 950.857 1585.203 947.327 1554.333 C 944.457 1575.193 926.417 1580.403 900.117 1553.863 Z" style="transform-box: fill-box; transform-origin: 50% 50%;" transform="matrix(-0.298345, 0.954458, -0.954458, -0.298345, -0.000045, -0.000009)"/>
    <path class="player_color_background" d="M 710.383 1565.344 C 710.383 1584.224 684.383 1589.404 645.783 1589.404 C 607.183 1589.404 558.383 1584.224 558.383 1565.344 C 558.383 1546.464 558.383 1514.044 627.383 1514.044 C 671.783 1514.044 710.383 1546.454 710.383 1565.344 Z" style="transform-box: fill-box; transform-origin: 50% 50%;" transform="matrix(-0.298345, 0.954458, -0.954458, -0.298345, 0.000018, 0.000076)"/>
  </g>
  <g transform="matrix(0.413338840008, 0.496884018183, -0.482630193233, 0.401482880116, -27.438086268285, -0.94185777153)" style="transform-origin: 829.174px 952.349px;">
    <g>
      <path class="broom_stick" d="M1648.1,3.4c0.9,0.6,1.8,1.2,2.6,2c10.2,9.1,10.2,26.8-0.1,39.4l-1024,1257.6c-10.3,12.6-26.9,15.5-37.1,6.4 c-10.2-9.1-10.2-26.8,0.1-39.4l1024-1257.6C1623,0.1,1637.9-3.3,1648.1,3.4z"/>
    </g>
    <path class="broom_stick" d="M290.1,1443.3c39.5-59.1,265.3-156.4,281.5-163.4c4.2-10.3,23.7-57.6,34.9-82.9c12.6-28.5,44.1-81,39.6-68 c-5.1,15.1-40.3,79.4-22.3,59.8c5.3-5.8,13.5-12.4,21.6-18.2c16-11.4,31.8-19.4,25.2-10.7c-10.5,13.8-20.8,51-28.5,63.1 c-11.9,18.7,62.5-32.6,53.7-18.8c-7,11.1-7.8,23.4-8.4,33.3c-0.1,2.2-0.3,4.3-0.5,6.2c-1.3,11.5,55-25.2,42.7-11.3 c-12.2,13.7-82.3,70.2-119.5,83.3c-1.8,11.2-11.3,69.5-30.4,127.7c-21.2,64.8-96.6,167.8-96.6,167.8l20.7-75.9 c0,0-18.2,44.5-54.4,111.8c-33.2,61.6-135.7,128.8-218.7,182.6c-4.5,2.9-33.7,14.6-57,23.7c-16.3,6.4-29.6,11.5-29.6,11.5l1.2-2 l28.9-47.9c0,0-104.6,58.8-151.7,79.5c0,0,0,0,0,0c-9,4-15.9,6.5-19.6,7c-2.8,0.4-3.7-0.5-2.1-2.9c0.6-0.9,1.5-2,2.8-3.4 c97.3-101.2,158.4-215.8,158.4-215.8s-67.6,70.4-62.1,54.6c27.6-78.7,138.3-183.8,138.3-183.8s-46.6,10.6-41.1,1.8 c34.3-55.4,134.6-106.3,136.2-107.1C332.1,1444.9,284.1,1452.3,290.1,1443.3z"/>
    <path class="broom_brush_light" d="M290.1,1443.3c39.5-59.1,265.3-156.4,281.5-163.4c4.2-10.3,23.7-57.6,34.9-82.9c12.6-28.5,44.1-81,39.6-68 c-5.1,15.1-40.3,79.4-22.3,59.8c5.3-5.8,13.5-12.4,21.6-18.2c-0.6,0.8-1.3,1.5-2,2c-16.1,11.1-62.7,113.2-71.7,123 c-8.9,9.7-183.5,113.8-212.3,140.8c-28.8,27.1,26.4,4.9,26.4,4.9s-77,62.5-100.2,93.9c-22.8,30.9-68.8,78.6-70.2,80.1 c1.7-1.1,42.7-27.5,24.9-7.9c-18.1,20-37,99.8-65.2,148.2c-24.7,42.3-106.5,109.2-152.5,138.9c0,0,0,0,0,0 c-6.6,4.2-12.4,7.7-17.2,10.2l-2.3-3.3l-2.1-2.9c0.6-0.9,1.5-2,2.8-3.4c97.3-101.2,158.4-215.8,158.4-215.8s-67.6,70.4-62.1,54.6 c27.6-78.7,138.3-183.8,138.3-183.8s-46.6,10.6-41.1,1.8c34.3-55.4,134.6-106.3,136.2-107.1 C332.1,1444.9,284.1,1452.3,290.1,1443.3z"/>
    <path class="broom_brush_light" d="M230.7,1829.7c-4.5,2.9-33.7,14.6-57,23.7c75.4-54.7,176.1-128.9,212.9-188.3c36.8-59.4,26.8-11.8,26.8-11.8 s87.2-166.5,91.9-157.8c4.8,8.7-1.5,42.1,28.4-10.8c30-52.9,64.3-144.7,67.9-159.5c0.8-3.2,3.1-7.1,6.4-11.6 c12.2-16.5,38.5-39.6,56.2-52.9c10.1-7.6,17.7-16.1,23.1-23.1c-0.1,2.2-0.3,4.3-0.5,6.2c-1.3,11.5,55-25.2,42.7-11.3 c-12.2,13.7-82.3,70.2-119.5,83.3c-1.8,11.2-11.3,69.5-30.4,127.7c-21.2,64.8-96.6,167.8-96.6,167.8l20.7-75.9 c0,0-18.2,44.5-54.4,111.8C416.2,1708.7,313.7,1775.9,230.7,1829.7z"/>
    <path d="M614.9,1319c-11.5-13.4-22.1-27.9-37.5-36.7" style="fill:none;stroke:#663300;stroke-width:7;stroke-linecap:round;stroke-miterlimit:10;"/>
    <path d="M631.3,1309.2c-13.4-11.3-26.1-23.8-42.8-30" style="fill:none;stroke:#512500;stroke-width:7;stroke-linecap:round;stroke-miterlimit:10;"/>
    <path d="M618.9,1307.7c-8.4-15.9-15.8-32.8-28.8-45" style="fill:none;stroke:#663300;stroke-width:7;stroke-linecap:round;stroke-miterlimit:10;"/>
  </g>
  <g transform="matrix(1.0174230337142944, 0, 0, 1.394489049911499, -10.780196189880371, -385.58184814453125)" style="">
    <ellipse class="player_skin_tone" cx="1240.182" cy="971.111" rx="117.849" ry="87.904"/>
    <rect class="player_skin_tone" x="1087.302" y="946.233" width="43.281" height="51.582"/>
  </g>
  <g id="j_15_" transform="matrix(-0.169546976686, 1.803727149963, 1.683801174164, 0.158275038004, 1281.099741947968, 1001.200914283264)" style="transform-origin: 74.0117px 195.279px;">
    <g id="k_526_">
      <g id="g_50_">
        <g id="k_542_">
          <path class="player_skin_tone" d="M31.7,385.3l22.8-44.7c1.1-2.2,3.8-3.1,6.1-2c2.2,1.1,3.1,3.8,2,6.1c0,0.1-0.1,0.1-0.1,0.2l-24.6,43.6 c-0.9,1.7-3,2.2-4.7,1.3C31.4,388.9,30.8,386.9,31.7,385.3z"/>
        </g>
        <g id="g_51_">
          <g id="k_540_">
            <path class="player_skin_tone" d="M14.8,341.7l8-16.1c0.3-0.7,0.9-1.2,1.5-1.6l0.3-0.2c6.7-3.9,13.5-7.6,20.6-10.8c2.8-1.3,6.1,0,7.3,2.7 s0,6.1-2.7,7.3c-0.1,0.1-0.3,0.1-0.5,0.2c-6.9,2.4-13.8,5.3-20.5,8.5l1.8-1.8l-9.5,15.3c-1.1,1.7-3.3,2.2-5,1.2 C14.5,345.5,14,343.4,14.8,341.7z"/>
          </g>
          <g id="k_538_">
            <path class="player_skin_tone" d="M12.5,372.4L37,331.4c1.3-2.1,4-2.8,6.2-1.6c2.1,1.3,2.8,4,1.6,6.2c0,0.1-0.1,0.1-0.1,0.2L18.2,376 c-1,1.5-3.1,2-4.6,0.9C12.1,375.9,11.6,374,12.5,372.4z"/>
          </g>
          <g id="k_536_">
            <path class="player_skin_tone" d="M18.5,383.5l25.4-43.6c1.2-2.1,4-2.9,6.2-1.6c2.1,1.2,2.9,4,1.6,6.2c0,0.1-0.1,0.1-0.1,0.2l-27.6,42.3 c-1,1.5-2.9,1.9-4.4,0.9C18.1,386.8,17.6,384.9,18.5,383.5z"/>
          </g>
          <g id="k_534_">
            <path class="player_skin_tone" d="M46.7,380.2l19.2-40.8c0.8-1.7,2.9-2.5,4.7-1.7c1.8,0.8,2.5,2.9,1.7,4.7c0,0,0,0.1-0.1,0.1l-20.7,40.1 c-0.7,1.3-2.3,1.8-3.5,1.1C46.7,383,46.1,381.5,46.7,380.2z"/>
          </g>
        </g>
      </g>
      <g id="k_527_">
        <path id="k_533_" class="player_color_dark" d="M97.4,34.2c0,3.6,0,6-1.5,7.8c-2.9,3.3-7.7,1.4-9.8,4.3c-2.1,3,2.1,6.5,1.3,10.3 c-2.1,9.2-31.1,4.8-35.8,15.5c-3.7,8.7,10.8,22.4,6.8,26.5c-2.1,2.1-6.9-1-10.8,2c-2.7,2-3.4,5.7-3.5,8.8 c-3.6-5.1-11.2-17.4-11.5-34.5c-0.1-3.3,0-26.8,18.5-44.3c8.1-7.6,16.6-11.2,21.8-12.9c7.6,2.4,15.2,5.4,22.7,9.2 c0.3,0.2,0.6,0.3,1,0.5C97.1,28.8,97.5,31.3,97.4,34.2z"/>
        <g id="k_531_">
          <path class="player_skin_tone" d="M48.1,15.2c2,3.1,4.2,6.1,6.5,9c2.2,2.9,4.6,5.8,6.9,8.7l7.1,8.6c2.3,2.9,4.8,5.7,7.3,8.5 c4.9,5.6,10,11,14.7,16.8c2.4,2.9,4.6,5.8,6.8,8.8c2.2,3,4.2,6.1,6.2,9.2c2,3.1,4,6.3,5.9,9.4c1.9,3.2,3.9,6.3,5.8,9.5 c3.8,6.4,7.5,12.9,11.1,19.4c1.8,3.3,3.6,6.6,5.3,9.9c1.7,3.3,3.4,6.7,5.1,10c3.3,6.7,6.5,13.6,9.4,20.6 c2.2,5.4,2.6,11.2,1.5,16.5l-0.1,0.4c-0.7,3.5-1.7,6.9-2.7,10.3c-1,3.4-2.2,6.7-3.4,9.9c-1.2,3.3-2.5,6.5-3.8,9.7 c-1.3,3.2-2.7,6.4-4.2,9.5c-2.9,6.3-6,12.5-9.3,18.6c-3.3,6.1-7,12-11,17.7c-2,2.9-4.1,5.7-6.3,8.5l-6.5,8.4 c-2.2,2.8-4.3,5.6-6.3,8.5c-2.1,2.8-4,5.8-5.9,8.7c-1.9,2.9-3.6,5.9-5.3,9c-1.7,3-3.1,6.2-4.4,9.4c-1.2,3.3-2.2,6.6-2.9,10.2 c-0.3,1.8-0.6,3.6-0.7,5.4c-0.2,1.9-0.2,3.8,0,5.8c1,11.5-7.5,21.5-19,22.5c-11.5,1-21.5-7.5-22.5-19c-0.7-8,3.3-15.3,9.6-19.4 c1.7-1.1,3.2-2.3,4.6-3.5c1.4-1.2,2.7-2.5,3.9-3.9c2.4-2.7,4.5-5.5,6.4-8.5c1.9-2.9,3.5-6,4.9-9.2c1.4-3.2,2.8-6.4,4-9.6 c1.2-3.3,2.4-6.6,3.4-9.9c1.1-3.3,2-6.7,2.9-10.2l2.8-10.2c0.9-3.4,1.9-6.8,2.9-10.1c2.1-6.7,4.6-13.2,7.5-19.5 c2.9-6.3,5.9-12.5,9.2-18.7c1.6-3.1,3.3-6.1,5.1-9.1c1.8-3,3.6-6,5.4-8.9c1.9-2.9,3.8-5.8,5.9-8.7c2.1-2.8,4.2-5.7,6.5-8.4 l1.4,16.9c-5.8-4.9-11.3-10.1-16.6-15.4c-2.7-2.6-5.3-5.3-7.9-8c-2.6-2.7-5.2-5.4-7.7-8.1c-5.1-5.5-10.1-11-14.9-16.6 c-2.5-2.8-4.8-5.6-7.2-8.5c-2.4-2.8-4.7-5.7-7.1-8.6c-2.4-2.9-4.6-5.8-6.8-8.8c-2.2-3-4.3-6.1-6.2-9.2 c-3.9-6.3-7.5-12.8-11.3-19.2c-1.9-3.2-3.8-6.4-5.7-9.5l-5.9-9.4c-2-3.1-4-6.3-6.1-9.3c-2.1-3.1-4.2-6.1-6.5-9 C1.1,32.8,2.8,17.7,13.2,9.5c10.4-8.2,25.4-6.5,33.6,3.9C47.3,14,47.7,14.6,48.1,15.2z"/>
        </g>
        <g id="k_528_">
          <g id="k_529_">
            <path class="player_color_middle" d="M96.7,27.2c-0.6-0.2-1.7-0.7-3.2-1c-1.9-0.4-4.4-0.5-7.1,0.5c-1.6,0.5-3.2,1.1-4.3,2.5 c-0.9,1.1-1.2,2.5-1.1,4.1c0,0.2,0,0.4,0,0.6c0.6,5.6,5.5,12.7,3,15.1c-1.7,1.7-4.7-0.8-10.2-0.1c-0.7,0.1-1.4,0.2-2.1,0.4 c-1.2,0.3-3.4,0.9-5.4,2.3c-0.7,0.5-1.3,1.1-1.9,1.8c-2.4,3-2.7,7.6-1.2,12.2c0.1,0.4,0.3,0.8,0.4,1.2c0.2,0.6,0.5,1.1,0.7,1.7 c5.8,11.7,5.5,16,3.8,17.6c-1.2,1.2-2.9,0.7-11.7,0.5c-2.6-0.1-4.6-0.1-6.1,0c-1.3,0-2.4,0.1-3.1,0.1c-1.8,0.2-2.2,0.4-2.5,0.6 c-1.2,0.8-2.7,2.6-2.9,7.3c-0.1,1.6,0,3.5,0.3,5.8c0.3,2.5,0.9,5.5,1.8,9.1c-10.5-7.8-41-32.5-43.8-69.3 c-0.6-7.9-1.4-19.6,6-28.7c16-19.6,54.5-7.6,56.3-7C78.6,9.3,89.3,19,95.2,25.5c0,0,0,0,0,0C95.7,26.1,96.2,26.6,96.7,27.2z"/>
          </g>
        </g>
      </g>
    </g>
    <path id="k_525_" class="player_color_highlight1" d="M50.6,86.3c-1.3,0-2.4,0.1-3.1,0.1c-1.8,0.2-2.2,0.4-2.5,0.6c-1.2,0.8-2.7,2.6-2.9,7.3 c-2.3-0.8-4.7-1.8-6.9-3.1C19.8,82.1,15.8,63,13.7,52.7c-3.4-16.2-2.1-31.7,0-32c2.3-0.3,2.9,16.8,15.5,37.5 c5.1,8.4,11.5,16.5,11.5,16.5C44.6,79.7,48,83.4,50.6,86.3z"/>
    <path id="k_524_" class="player_color_highlight1" d="M74,48.8c-0.7,0.1-1.4,0.2-2.1,0.4c-1.2,0.3-3.4,0.9-5.4,2.3c-0.7,0.5-1.3,1.1-1.9,1.8 c-2.4,3-2.7,7.6-1.2,12.2c-2.4-2.4-6.1-6.6-12.3-14.2c-6.8-8.2-8.8-10.7-10.5-13C33,28,29.2,22.9,30.2,21.7 c2.3-2.9,23.9,11.9,28.5,15C66.3,41.9,71.1,45.8,74,48.8z"/>
    <path id="k_26_" class="player_color_highlight1" d="M96.7,27.2c-0.6-0.2-1.7-0.7-3.2-1c-1.9-0.4-4.4-0.5-7.1,0.5c-1.6,0.5-3.2,1.1-4.3,2.5 c-0.9,1.1-1.2,2.5-1.1,4.1c0,0.2,0,0.4,0,0.6c-2.2-2-4.7-3.9-7.5-5.6C59.8,19.4,45.9,19,46.2,16.7c0.3-2,9.8-2.9,18.5-2 c9.5,1,21.3,4.7,30.5,10.8c0,0,0,0,0,0C95.7,26.1,96.2,26.6,96.7,27.2z"/>
  </g>
  <g id="ñÇñ_x40_égÇ_xA2_ÇÃèóÇÃéq" transform="matrix(1.0936039686203003, 0, 0, 1.2061469554901123, 944.637451171875, 819.1904907226562)" style="">
    <g style="transform-origin: 185.171px 139.822px;" transform="matrix(0.194772, 1.112015, -1.112015, 0.194772, 190.509262, -44.725147)">
      <g>
        <g>
          <g>
            <path class="player_color_dark player_color_stroke" d="M366.7,256.7c4.4-24.8-72-49.2-97.2-59.4c-45.6-18.6-101.5-18.6-151.7-21.4c-51.7-2.9-98.4,2.3-110.1,16.8 c-16,19.9,15.2,38.7,61.2,53.3c25.3,8,68.2,19.1,106.6,23.7c36.7,4.4,74.2,6.2,92.7,6.4C322.2,276.7,364.3,271.1,366.7,256.7z" style="stroke-linecap: round; stroke-linejoin: round; stroke-width: 7.0765px;"/>
            <path class="player_color_dark" d="M268.8,224.8c-16.2,11.5-61.6,6.5-80.7,5.6c-17.7-0.9-59.8-9.1-72.9-24.4c-12.4-14.4,43.1-96.1,54.7-117.7 C186.2,58,234.9,20,263.1,3.5c2.1,11.2-6.8,29.9-3.5,51.1c3,19.3-1.3,31.8-16.5,43.1C267.3,115.6,280.3,216.6,268.8,224.8z"/>
            <path class="player_color_stroke player_color_no_fill" d="M242.7,98.2c-8.5,3.3-18.5,5.7-29,4.6" style="stroke-linecap: round; stroke-linejoin: round; stroke-width: 7.0765px;"/>
            <path class="player_color_stroke player_color_no_fill" d="M265.3,212.3c-13.1,20.3-56.5,20.3-75.5,17.4c-22.7-3.6-63.4-0.6-76.9-29.8 c-1.4-22.8,45.2-90.1,56.8-111.6C186.2,58,234.9,20,263.1,3.5c2.1,11.2-6.8,29.9-3.5,51.1c3,19.3-1.3,31.8-16.5,43.1 C267.3,115.6,270.9,192.9,265.3,212.3z" style="stroke-linecap: round; stroke-linejoin: round; stroke-width: 7.0765px;"/>
          </g>
        </g>
      </g>
    </g>
  </g>
  
  <g transform="matrix(-0.002431000117, 0.999996960163, -0.999996960163, -0.002431000117, 686.940608433459, 714.69616090242)" style="transform-origin: 229.363px 252.876px;">
    <path class="player_color_dark" d="M248.8,462V115.1c-5,4.8-11.8,7.8-19.4,7.8c-7.5,0-14.3-3-19.4-7.8V462c0,24.1-19.5,43.7-43.6,43.8v0h126.2 C268.4,505.8,248.8,486.2,248.8,462"/>
    <path class="player_color_middle" d="M210,462V115.1c-2.7-2.6-4.9-5.6-6.4-9.1h-103L0.5,464.1c-3.7,21.8,13.1,41.7,35.2,41.7h130.5 c0.1,0,0.1,0,0.2,0C190.5,505.7,210,486.2,210,462"/>
    <path class="player_color_middle" d="M458.2,464.1L358.1,106h-103c-1.5,3.5-3.7,6.5-6.4,9.1V462c0,24.2,19.6,43.8,43.8,43.8h3.8H423 C445.2,505.8,462,485.9,458.2,464.1"/>
    <path class="player_color_dark" d="M212.7,72.5l-70.2-70c-4.3-4.3-11.2-3-14.7,2.7l-22.2,36.7l97.3,44.3C204.7,80.7,208.1,75.9,212.7,72.5"/>
    <path class="player_color_highlight1" d="M203.6,106c-1.5-3.4-2.3-7.2-2.3-11.1c0-3.1,0.6-5.9,1.5-8.7l-97.3-44.3l-7.8-3.6c-6.1-2.8-13.3,0.5-15.1,7 L68.8,94.8c-1.6,5.6,2.7,11.2,8.5,11.2h23.3H203.6z"/>
    <path class="player_color_dark" d="M255.9,86.2l97.3-44.3L330.9,5.2c-3.4-5.7-10.4-7-14.7-2.7l-70.2,70C250.7,75.9,254.1,80.7,255.9,86.2"/>
    <path class="player_color_highlight1" d="M257.4,94.9c0,4-0.8,7.7-2.3,11.1h103h23.3c5.9,0,10.1-5.6,8.5-11.2l-13.9-49.4c-1.8-6.5-9-9.8-15.1-7 l-7.8,3.6l-97.3,44.3C256.8,89,257.4,91.9,257.4,94.9"/>
    <path class="player_color_highlight2" d="M202.8,86.2c-0.9,2.8-1.5,5.6-1.5,8.7c0,4,0.8,7.7,2.3,11.1c1.5,3.5,3.7,6.5,6.4,9.1c5,4.8,11.8,7.8,19.4,7.8 c7.5,0,14.3-3,19.4-7.8c2.7-2.6,4.9-5.6,6.4-9.1c1.5-3.4,2.3-7.2,2.3-11.1c0-3.1-0.6-5.9-1.5-8.7c-1.8-5.5-5.3-10.3-9.8-13.7 c-4.7-3.5-10.4-5.6-16.7-5.6s-12,2.1-16.7,5.6C208.1,75.9,204.7,80.7,202.8,86.2"/>
  </g>
</svg>